<svg width="83" height="36" viewBox="0 0 83 36" fill="none" xmlns="http://www.w3.org/2000/svg">
<g clip-path="url(#clip0_138_4)">
<path d="M0 22.2133V35.4186H6.33229V22.7461C6.33229 18.4035 8.35669 16.2402 12.5188 16.2402C13.5877 16.2402 14.7861 16.3854 15.8064 16.7246V10.4608C14.5432 10.1218 13.199 9.9281 11.8872 9.9281C4.82614 9.9281 0 14.5935 0 22.2133Z" fill="white"/>
<path d="M26.5437 10.2671H20.2114V35.4186H26.5437V10.2671Z" fill="white"/>
<path d="M69.7523 9.68628C62.7884 9.68628 58.351 15.7562 54.286 20.9545C50.2211 26.1042 47.9537 29.6719 43.9859 29.6719C40.2611 29.6719 37.5564 26.5885 37.5564 22.8271C37.5564 18.9687 40.1638 15.9823 43.9373 15.9823C45.6216 15.9823 47.5651 16.7572 49.3465 18.4844L53.3144 13.8836C50.9984 11.3813 47.7593 9.68628 44.1316 9.68628C36.8763 9.68628 31.0784 15.6593 31.0784 22.8432C31.0784 30.5599 36.439 36.0002 44.083 36.0002C49.1035 36.0002 52.7636 33.385 56.7963 28.2512C60.6507 33.1589 64.0841 36.0002 69.8333 36.0002C77.3317 36.0002 82.9838 30.4146 82.9838 22.8432C83 15.6593 77.2345 9.68628 69.7523 9.68628ZM69.8981 29.6881C65.9627 29.6881 63.3067 26.7823 60.4401 23.166C63.744 18.4038 66.4323 15.9984 69.8009 15.9984C73.7688 15.9984 76.5219 18.985 76.5219 22.8432C76.5219 26.7015 73.8659 29.6881 69.8981 29.6881Z" fill="white"/>
<path d="M23.4505 0C21.1346 0 19.5312 1.50134 19.5312 3.61614C19.5312 5.77937 21.1669 7.37758 23.4505 7.37758C25.734 7.37758 27.321 5.87624 27.321 3.71301C27.321 1.54977 25.7178 0 23.4505 0Z" fill="white"/>
</g>
<defs>
<clipPath id="clip0_138_4">
<rect width="83" height="36" fill="white"/>
</clipPath>
</defs>
</svg>
