<svg width="65" height="29" viewBox="0 0 65 29" fill="none" xmlns="http://www.w3.org/2000/svg">
<g clip-path="url(#clip0_140_117)">
<path d="M0 17.894V28.5317H4.95902V18.3232C4.95902 14.825 6.54439 13.0824 9.8039 13.0824C10.641 13.0824 11.5795 13.1994 12.3785 13.4726V8.4268C11.3893 8.15371 10.3366 7.99765 9.30927 7.99765C3.77951 7.99765 0 11.7559 0 17.894Z" fill="#FF5200"/>
<path d="M20.7874 8.27071H15.8284V28.5316H20.7874V8.27071Z" fill="#FF5200"/>
<path d="M54.6254 7.80284C49.1718 7.80284 45.6967 12.6925 42.5133 16.88C39.3299 21.0284 37.5543 23.9024 34.4469 23.9024C31.5299 23.9024 29.4118 21.4185 29.4118 18.3885C29.4118 15.2804 31.4537 12.8746 34.4088 12.8746C35.7279 12.8746 37.2499 13.4988 38.645 14.8903L41.7523 11.184C39.9386 9.16831 37.402 7.80284 34.5611 7.80284C28.8792 7.80284 24.3386 12.6145 24.3386 18.4015C24.3386 24.6177 28.5367 29.0001 34.523 29.0001C38.4547 29.0001 41.3211 26.8935 44.4792 22.758C47.4977 26.7114 50.1865 29.0001 54.6888 29.0001C60.5611 29.0001 64.9874 24.5006 64.9874 18.4015C65.0001 12.6145 60.485 7.80284 54.6254 7.80284ZM54.7396 23.9154C51.6577 23.9154 49.5777 21.5746 47.3328 18.6615C49.9201 14.8253 52.0254 12.8876 54.6635 12.8876C57.7709 12.8876 59.9269 15.2935 59.9269 18.4015C59.9269 21.5096 57.8469 23.9154 54.7396 23.9154Z" fill="#FF5200"/>
<path d="M18.3649 0C16.5513 0 15.2957 1.20942 15.2957 2.913C15.2957 4.6556 16.5766 5.94305 18.3649 5.94305C20.1532 5.94305 21.3961 4.73363 21.3961 2.99104C21.3961 1.24843 20.1406 0 18.3649 0Z" fill="#FF5200"/>
</g>
<defs>
<clipPath id="clip0_140_117">
<rect width="65" height="29" fill="white"/>
</clipPath>
</defs>
</svg>
